<svg width="146" height="23" viewBox="0 0 146 23" fill="none" xmlns="http://www.w3.org/2000/svg">
<path d="M45.7545 4.81523C45.343 5.16772 44.6494 5.25228 41.0462 5.88138C41.0462 5.88138 40.9074 5.89561 40.3344 6.17854C39.4972 6.1738 38.1303 6.80369 37.726 7.03051C37.5573 7.12535 37.3507 7.60033 37.2845 8.47838C37.5242 8.76764 37.6503 8.74709 37.9585 8.74709C39.684 8.74709 42.1482 7.87932 42.4469 7.93227C43.5678 8.18201 44.0881 9.91598 44.0881 10.809C44.0881 10.9086 43.9793 11.4579 43.9557 11.5211C43.8162 11.8973 43.1406 12.2119 42.3255 12.2862C38.4457 12.6402 36.6318 12.9429 36.1825 13.2598C36.0942 13.3223 35.961 13.753 35.961 13.9909C35.961 14.9077 37.9041 15.144 38.2336 15.144C39.4373 15.144 40.0403 14.5014 40.4794 14.5014C41.0068 14.5014 42.0883 15.7802 42.0883 17.2186C42.0883 18.1622 41.538 19.7057 39.137 19.7057C38.5127 19.7057 35.8727 19.2402 33.9746 17.9038C33.9746 17.9038 34.0313 17.5173 33.2375 16.9514C32.9695 16.4915 32.4761 14.861 32.4761 13.6147C32.4761 10.8478 33.8414 9.00948 34.0266 7.9378C34.0266 7.9378 33.3763 7.02103 33.1225 6.68198C32.9821 6.49467 32.8316 6.33503 32.8316 5.64349C32.8316 3.48591 34.2426 3.08205 34.3112 3.08205L34.8015 3.09075C34.8015 3.09075 35.8444 2.61102 35.9855 2.41107L36.7572 2.35891C37.2136 2.30121 42.3799 0.963196 43.4102 0.963196C44.2331 0.963196 44.5532 1.09834 44.8787 1.60178C45.0955 1.93766 45.9744 3.54676 45.9744 4.12212C45.9737 4.25726 45.8617 4.72277 45.7545 4.81523Z" fill="#66CC00"/>
<path d="M48.3128 13.2229C48.1961 13.3367 48.0668 13.7721 48.0369 14.0321C47.999 14.3617 49.2035 14.8881 50.2953 14.9442C53.4901 15.1078 53.0794 13.6299 54.0143 14.0954C54.6252 14.3996 55.1652 15.9463 55.1652 16.8489C55.1652 18.9219 53.1543 19.5059 51.3689 19.5059C48.9213 19.5059 46.7307 18.36 46.7307 18.36C46.7307 18.36 44.8483 16.008 44.8483 14.3159C44.8483 10.4338 46.9057 6.15973 47.0082 5.9574C47.0082 5.9574 47.1769 4.84068 47.277 4.11753C47.3897 3.30033 47.9383 3.13358 48.3987 2.62224C49.4447 2.51633 51.3035 1.68965 57.1359 1.05581C57.8721 0.975992 58.7897 1.99867 59.2839 3.54929C59.3714 3.82353 59.228 4.90785 58.8598 5.02166C58.6407 5.08963 58.0558 5.15681 53.3388 5.65076C52.5269 5.73532 51.6818 5.87284 51.3445 6.11468C50.9677 6.38418 50.2464 7.58705 50.1439 7.99012C50.0383 8.40425 50.2488 8.62554 50.7777 8.56942C53.2639 8.30387 54.9406 7.21481 55.1321 7.21481C56.0205 7.21481 56.8624 8.3995 57.1115 9.69722C57.2565 10.4551 57.0547 11.085 56.8143 11.2415C56.0891 11.7133 54.9279 12.0105 53.6959 12.25C53.1606 12.3535 52.7815 12.3369 52.5639 12.3179C52.4575 12.3084 52.1989 12.4894 52.0484 12.5108C50.2495 12.7629 48.6296 12.913 48.3128 13.2229Z" fill="#66CC00"/>
<path d="M101.939 3.07761C101.939 4.04812 101.659 4.68433 101.315 4.81711C99.796 5.40037 94.695 6.12826 92.3405 6.91463C91.9124 7.05768 91.147 8.34353 91.147 8.84381C91.147 9.10145 91.4418 9.1876 91.8825 9.12912C95.2823 8.67942 95.8727 8.38621 97.2916 7.74842C97.5297 7.76423 97.8702 7.79347 98.0673 8.00528C98.4748 8.44311 98.891 9.30457 98.891 10.5588C98.891 11.3246 98.5552 12.1331 97.2238 12.3347C95.4628 12.6018 91.4142 13.2017 90.2271 13.3447C89.6312 13.4166 89.2867 13.5707 89.2331 13.6482C88.6994 14.4188 88.9107 16.0358 92.5431 15.2375C94.0676 14.9024 94.3703 14.3413 95.2334 14.3413C95.2902 14.3413 95.3958 14.3524 95.4573 14.3705C96.1991 14.9996 96.3615 15.7497 96.3615 16.7731C96.3615 17.9918 95.8412 18.8043 94.766 19.3559C94.6785 19.401 94.2765 19.48 94.2378 19.4871C94.1929 19.495 93.7042 19.7732 93.4709 19.8356C92.8355 20.0063 92.3531 20.0403 92.1198 20.0403C89.6272 20.0403 85.6606 18.8912 85.6606 14.2741C85.6606 10.087 88.4969 7.16121 89.2497 4.3935C89.2497 4.3935 89.4436 4.19908 89.6272 3.91456C89.6808 3.43799 90.1104 2.32206 90.6473 2.26436C91.9779 2.1221 96.0808 1.22746 99.6998 0.0538276C100.004 -0.0449628 100.273 -0.0109789 100.504 0.152618C101.135 0.599941 101.939 1.83285 101.939 3.07761Z" fill="#66CC00"/>
<path d="M31.9536 15.1545C31.215 14.3215 28.8297 13.0056 28.0114 12.1671C28.3638 11.7656 30.2777 9.06266 30.2777 6.9272C30.2777 3.91054 28.0958 0.296387 25.1595 0.296387C25.1595 0.296387 24.3042 0.311403 23.266 0.392806C23.0776 0.686016 22.4518 0.618839 22.4518 0.618839C21.4207 1.08355 20.4645 1.86123 20.4645 4.35628C20.4645 4.8036 21.088 5.26673 21.4648 5.61448C21.3955 6.41665 21.1172 7.79656 20.7507 8.73309C20.6182 9.07214 19.6668 9.20571 19.6668 9.20571L19.1655 9.85535C18.8399 11.7916 19.1718 12.0224 19.8386 12.8926C19.9277 13.9152 19.5296 15.6864 19.5296 16.6924C19.5296 17.418 19.8055 17.3389 19.6605 18.085C19.6605 18.085 19.774 18.2083 19.8308 18.3814C20.0846 19.1488 20.9588 19.8269 21.7959 19.8269C22.6551 19.8269 23.0193 19.1772 23.0193 18.8706C23.0193 18.0115 22.7986 15.3837 22.8191 15.1442C22.8908 14.3152 23.2337 13.8599 23.2337 13.8599C23.7973 13.8599 26.3072 16.1432 28.4497 18.3332C28.7729 18.6635 29.4169 19.0026 29.9868 19.0026C31.2906 19.0026 31.8267 17.5278 32.1995 17.188C32.4045 16.9224 32.4313 15.6935 31.9536 15.1545ZM24.4713 9.34164C24.3468 9.40882 23.9739 9.28 23.9274 9.23416C23.9274 9.23416 24.588 5.35446 24.6455 4.51909C25.5749 4.25986 26.8101 4.77357 26.8101 6.00727C26.8093 7.07262 26.319 8.349 24.4713 9.34164Z" fill="#66CC00"/>
<path d="M85.7001 1.35481L84.7636 1.08215L84.2804 0.836357C83.0263 0.589776 80.0001 0.539985 78.9895 0.645098C78.8185 0.662486 78.154 0.498098 77.8694 0.434082C77.1135 0.873502 76.4474 1.07582 76.4474 1.07582C76.2763 1.07582 75.7947 0.879034 75.7947 0.879034C75.0781 0.934357 73.195 1.38168 72.3413 1.89065C71.9448 2.12696 71.6823 2.56558 71.5585 2.81217C71.553 2.82244 71.5483 2.8335 71.5435 2.84536C71.5136 2.9157 71.3985 3.03346 71.3804 2.84378C71.3606 2.662 71.3331 2.46679 71.296 2.3277C71.0595 1.4457 69.9646 0.762857 69.3001 0.762857C69.0305 0.762857 68.4645 1.06555 68.4133 1.38958C68.3487 1.79739 68.3045 3.62778 68.1106 5.40522C68.0909 5.58383 68.0893 8.93164 67.7551 10.0452C67.6786 10.0618 67.4414 10.1479 67.368 10.0365C66.5301 8.77042 64.3356 6.57964 64.1495 5.1286C63.9777 3.78901 64.1968 1.68042 63.5079 1.13589C63.2533 0.934357 62.0291 0.561324 61.601 0.561324C61.0824 0.561324 60.6433 0.790518 60.4068 1.12245L60.3524 1.52789L59.9717 2.10483C59.8566 2.47944 59.7896 3.12355 59.7525 4.51057L60.0726 6.15919C60.0726 6.15919 60.0639 6.54012 59.7801 6.8689L59.8621 8.14053C59.8621 9.5718 58.5567 14.49 58.5567 15.9718C58.5567 19.3031 61.4592 19.0296 61.6271 18.8881C61.8352 18.7127 62.2498 18.0014 62.2695 17.7967C62.4658 15.8288 62.6668 12.4715 63.1965 11.4852C63.3045 11.2844 63.5804 11.1864 63.7223 11.3208C64.1866 11.7602 64.7013 12.7497 64.766 12.8414C65.2823 13.5764 66.7871 15.4068 67.0701 17.0522C67.0937 17.1897 67.0677 17.5225 67.1126 17.7801C67.2096 18.3404 67.4469 18.9909 68.2036 19.6231C68.4101 19.7954 69.2339 19.8982 69.7857 19.8033C70.3375 19.7085 71.3417 19.6002 71.3417 17.0008C71.3417 15.3143 71.0658 14.6378 71.0871 14.313C71.1084 13.9881 71.4797 10.9043 71.4797 6.61757C71.4797 6.61757 71.2826 6.2311 71.2069 5.99717C71.3094 5.62809 71.3606 5.33725 71.3867 5.14046C71.4016 5.03456 71.4568 4.95631 71.4986 5.04404C71.5293 5.10568 71.5664 5.17444 71.6074 5.24004C71.8218 5.58146 72.3105 5.87625 72.8907 5.87625C73.8114 5.87625 75.0174 4.79588 75.8522 4.99109C75.9665 5.01796 76.0903 4.81405 76.7453 4.75794C76.7603 5.15706 76.7674 6.02404 76.6594 7.22849C76.6097 7.78488 76.3567 7.90738 75.3264 7.90738C74.9504 7.90738 74.7116 8.20691 74.602 8.44875C74.4656 8.75066 74.2016 10.2041 74.2016 10.604C74.2016 11.418 75.1081 12.466 76.2093 12.7608C76.2779 13.1014 75.9492 15.7292 75.9492 17.0506C75.9492 18.3728 76.2637 18.9711 76.3205 19.0249C76.3977 19.0976 77.3294 19.7844 78.0444 19.7844C78.582 19.7844 79.1906 19.4746 79.2954 19.258C79.3569 19.1316 79.5122 18.7814 79.5271 18.1286C79.5957 15.108 79.9347 11.9222 80.3123 11.8108C82.1229 11.275 83.8768 10.5969 85.6686 9.28966C86.5924 8.6163 87.7528 7.21506 87.7528 5.81302C87.752 3.97868 86.5672 1.90962 85.7001 1.35481ZM80.3808 7.40078C80.1538 7.39999 80.0104 7.32807 79.9505 7.14077C79.736 6.46978 79.6399 5.05036 79.6399 4.29481C80.4289 4.13043 83.8934 4.3446 83.8934 5.24004C83.8934 6.04854 81.5633 7.40474 80.3808 7.40078Z" fill="#66CC00"/>
<path d="M18.6442 12.1273C18.6442 11.5898 18.1216 9.78554 17.7401 9.35639C17.2561 8.81265 16.6877 8.68304 15.9885 8.68304C15.5274 8.68304 7.78971 9.8788 6.81934 10.481C6.35505 10.7695 6.18084 11.4286 6.18084 12.3865C6.18084 13.7285 7.06371 14.326 7.31517 14.326C7.88036 14.326 11.8091 13.5617 13.2209 13.2977C13.511 13.244 13.6237 13.3649 13.6206 13.4819C13.6206 13.8265 13.5228 14.2303 13.3699 14.401C12.822 15.0143 11.9967 15.3905 11.2841 15.6237C10.1703 15.4087 9.23146 16.3587 8.1129 15.8054C7.63047 15.7991 6.93522 16.1492 6.60336 15.6086C5.48086 15.3565 4.28111 15.2799 3.38248 14.533C3.04273 14.2106 2.95444 13.8296 2.95444 13.3681C2.95444 12.1494 4.76826 9.01971 7.85434 6.10974C8.49442 5.50593 10.7938 3.81622 11.806 3.81622C12.4831 3.81622 12.7196 5.32969 13.2572 5.90347C13.3904 6.04573 13.9516 6.06074 14.2283 5.93982C14.8211 5.68139 15.2862 5.36051 15.2862 4.66266C15.2862 3.0994 14.6753 1.82935 14.1653 1.20104C13.8428 0.804297 12.327 0.151489 11.7185 0.151489C10.4225 0.151489 9.8132 0.923636 9.33708 0.941813C7.41764 2.12414 6.50403 3.21083 6.11305 3.56411C5.96013 3.70242 5.76858 3.753 5.76858 3.753C5.76858 3.753 5.65034 4.18056 5.45484 4.45717C5.3839 4.50064 4.70914 4.94797 4.70914 4.94797C3.8247 5.80784 0 10.6012 0 12.3928C0 14.0746 1.11462 16.4219 1.52531 16.806C2.92528 18.1171 5.52342 19.0387 8.45264 19.0387C10.5053 19.0387 12.4153 18.227 12.9884 17.9109C13.1279 17.8302 13.2233 17.8413 13.2075 17.9938C13.1886 18.1669 13.1641 18.4056 13.1531 18.5961C13.1405 18.7968 13.0451 19.8037 13.0451 20.4849C13.0451 21.6775 13.3683 22.29 13.6954 22.6054C13.846 22.75 14.8479 23.0005 15.5014 23.0005C15.8261 23.0005 16.8517 22.5153 16.8517 21.446C16.8517 20.8256 16.7823 19.9926 16.7934 19.791C17.0787 14.4698 18.6442 13.0069 18.6442 12.1273Z" fill="#66CC00"/>
<path d="M145.141 3.20192C144.854 1.91449 143.863 0.734532 143.026 0.545644C142.272 0.716354 136.074 1.90737 132.001 2.44163C131.44 2.51513 130.747 2.542 130.747 2.542L130.282 2.7791C130.282 2.7791 129.471 2.84944 129.083 3.13316C128.555 3.51963 127.848 4.27202 127.656 5.44644L127.736 6.51496C126.477 9.02187 125.628 11.0364 125.628 13.7678C125.628 13.8215 125.631 13.8816 125.635 13.9424C125.637 14.144 125.614 14.2435 125.559 14.193C125.496 14.095 125.416 13.9788 125.329 13.88C124.843 13.3236 124.682 13.2493 124.458 13.2493C123.789 13.2493 123.284 14.5083 121.034 14.5083C119.009 14.5083 115.208 12.3807 115.208 11.2711C115.208 8.82903 118.451 5.77838 120.865 5.77838C121.287 5.77838 121.397 5.8993 121.397 6.18856C121.397 6.67065 121.036 7.4262 121.036 7.90514C121.036 9.07087 122.786 9.90861 123.705 9.90861C123.97 9.90861 125.858 9.21234 125.858 6.46359C125.858 4.84817 124.683 2.18478 122.752 2.18478C120.323 2.18478 116.685 3.47538 114.248 5.17931C114.248 5.17931 114.12 5.47964 113.907 5.68038C113.694 5.88112 113.107 6.27865 113.107 6.27865C112.527 7.0263 112.063 8.01974 111.905 8.37934C111.858 8.48524 111.805 8.62275 111.752 8.76501C111.752 8.7658 111.751 8.7658 111.751 8.76659C111.646 9.04637 111.475 9.14042 111.436 8.97682C111.422 8.83614 111.406 8.65674 111.388 8.42675C111.306 7.38827 111.218 6.75759 111.062 5.99019C111.062 5.99019 110.79 5.25281 110.719 4.91614C110.699 4.81972 110.687 4.41428 110.687 4.41428C110.119 2.23378 108.786 0.805661 108.601 0.737693C107.72 0.415241 107.5 0.332257 107.116 0.577257C105.61 1.53987 103.843 4.47276 101.125 9.50476C101.125 9.50476 100.688 10.0003 100.074 10.3662C100.147 11.1376 100.097 11.5438 100.028 11.7651C99.487 13.4975 97.9215 15.6685 97.9925 16.115L98.0784 16.643L98.0185 17.2689C98.0185 17.6712 99.2577 19.1238 100.293 19.1238C100.378 19.1238 100.474 19.1151 100.532 19.0993C101.573 18.1738 101.872 16.3735 102.8 14.8616C102.903 14.694 102.937 14.6648 103.186 14.5707C103.784 14.3463 104.994 14.1416 105.523 14.0776C106.052 14.0136 106.515 14.1274 106.515 14.1274L106.977 13.9748C107.411 13.9503 107.644 14.0807 107.644 14.4301C107.644 16.1348 107.679 17.5265 107.795 18.0458C107.977 18.8654 108.734 19.4249 110.234 19.5403C110.398 19.5403 111.012 19.1704 111.199 18.6227C111.497 17.7534 111.313 16.6532 111.313 15.708C111.313 14.2941 111.358 13.4524 111.395 12.9925C111.429 12.8376 111.541 12.7909 111.589 12.9356C111.589 12.9363 111.589 12.9371 111.589 12.9379C111.734 13.3228 111.987 13.8942 112.328 14.302C114.198 16.5386 117.361 19.153 121.778 19.4304C123.538 19.5411 124.835 18.6433 125.514 16.9093C125.662 16.5323 125.766 16.2012 125.82 16.0147C125.856 15.9633 125.922 15.9815 125.973 16.0747C125.973 16.0747 125.973 16.0747 125.974 16.0755C126.062 16.2359 126.211 16.4754 126.443 16.7686C127.962 18.6844 130.118 19.2811 132.837 18.8693C135.867 18.4109 136.278 18.0995 136.534 17.7668C136.956 17.2183 137.115 16.3916 137.175 15.7325C137.219 15.2433 137.281 14.6648 136.867 14.2507C136.397 13.7804 134.944 14.257 133.028 14.5834C130.489 15.0157 129.42 13.9408 129.451 13.6113C129.469 13.4129 129.567 13.0106 129.826 12.945C130.079 12.881 130.601 12.9846 130.835 13.043C130.931 13.0375 132.345 12.7704 133.405 12.7704C133.794 12.7704 134.253 12.8281 134.407 12.8344C134.407 12.8344 136.076 12.7111 137.066 12.5135C137.673 12.3926 138.225 11.8552 138.275 11.5225C138.423 10.544 138.313 9.95603 138.13 9.57905C137.431 8.13354 136.602 7.97074 136.424 8.00867C135.541 8.19677 133.772 8.71838 131.398 8.5943C131.109 8.57929 130.93 8.23945 130.956 8.01262C131.031 7.39696 131.788 6.38614 132.506 6.24783C134.411 5.8827 140.057 5.31762 142.13 5.2133C143.428 5.1477 144.795 5.54523 145.053 5.10344C145.358 4.58894 145.214 3.52991 145.141 3.20192ZM107.814 9.08747C107.661 9.38858 106.755 9.61461 105.23 9.63516C105.163 9.63595 105.088 9.50001 105.124 9.41387C105.754 7.9083 106.974 5.25914 107.139 5.23938C107.307 5.21804 107.567 5.30577 107.676 5.44565C107.989 5.8503 108.007 8.70574 107.814 9.08747Z" fill="#66CC00"/>
</svg>
